<svg xmlns="http://www.w3.org/2000/svg" width="1800" height="1600" viewBox="0 0 1800 1600" version="1.1"><path d="M 1215.635 459.135 C 1183.411 463.273, 1159.065 479.709, 1145.774 506.297 C 1143.794 510.259, 1141.191 516.425, 1139.991 520 C 1135.253 534.113, 1135 537.899, 1135 594.630 C 1135 646.701, 1134.948 648.139, 1133 650.230 C 1130.433 652.986, 1130.296 659.923, 1132.750 662.903 C 1137.154 668.249, 1146.243 667.072, 1149.330 660.756 C 1150.879 657.586, 1150.979 656.467, 1149.985 653.456 C 1149.340 651.500, 1147.954 649.364, 1146.906 648.709 C 1145.069 647.562, 1145 645.524, 1145 592.176 C 1145 539.431, 1145.098 536.450, 1147.078 528.667 C 1154.590 499.136, 1174.628 478.767, 1204 470.804 C 1211.551 468.757, 1214.676 468.505, 1232 468.547 C 1248.952 468.588, 1252.584 468.886, 1259.796 470.830 C 1286.636 478.064, 1304.686 493.981, 1314.163 518.770 L 1317.500 527.500 1317.787 587.167 L 1318.074 646.835 1315.578 649.331 C 1312.096 652.813, 1311.382 656.482, 1313.375 660.661 C 1316.402 667.007, 1324.428 668.299, 1329.476 663.252 C 1333.134 659.593, 1332.639 651.415, 1328.600 648.783 C 1327.820 648.275, 1327.499 630.803, 1327.497 588.783 C 1327.493 521.834, 1327.759 524.542, 1319.485 507.388 C 1311.113 490.031, 1298.263 477.154, 1280.678 468.498 C 1262.831 459.713, 1238.455 456.204, 1215.635 459.135 M 1391.500 591.525 C 1361.250 594.435, 1336.388 596.858, 1336.250 596.908 C 1336.112 596.959, 1336 601.797, 1336 607.661 L 1336 618.322 1374.522 617.699 L 1413.044 617.076 1416.002 621.788 C 1417.629 624.380, 1422.322 633.250, 1426.430 641.500 C 1467.260 723.483, 1478.934 822.087, 1460.938 932.968 C 1453.154 980.926, 1439.521 1032.030, 1421.981 1079 C 1415.851 1095.415, 1403.397 1125.295, 1399.371 1133.250 C 1398.048 1135.862, 1397.152 1138, 1397.379 1138 C 1397.606 1138, 1401.826 1131.813, 1406.757 1124.250 C 1461.273 1040.648, 1492.218 952.226, 1502.210 851.500 C 1504.207 831.375, 1503.870 764.732, 1501.670 744.500 C 1496.997 701.527, 1488.720 663.765, 1477.376 633.666 C 1474.855 626.975, 1468.676 613.515, 1463.646 603.756 L 1454.500 586.012 1450.500 586.122 C 1448.300 586.183, 1421.750 588.614, 1391.500 591.525 M 1230 606.071 C 1189.575 609.832, 1155.713 612.929, 1154.750 612.954 C 1153.482 612.987, 1153 613.827, 1153 616 L 1153 619 1183.336 619 C 1200.020 619, 1235.345 618.702, 1261.836 618.337 L 1310 617.673 1309.989 612.087 C 1309.983 609.014, 1309.699 604.813, 1309.358 602.750 C 1308.819 599.487, 1308.398 599.015, 1306.119 599.116 C 1304.679 599.180, 1270.425 602.310, 1230 606.071 M 1108 617 L 1091.500 618.735 1109.750 618.868 C 1127.377 618.995, 1128 618.932, 1128 617 C 1128 615.712, 1127.377 615.047, 1126.250 615.132 C 1125.287 615.205, 1117.075 616.046, 1108 617 M 912 792 L 912 876 928.500 876 L 945 876 945 792 L 945 708 928.500 708 L 912 708 912 792 M 317 799.923 L 317 876 342.750 875.992 C 356.913 875.988, 371.338 875.524, 374.806 874.962 C 404.301 870.175, 427.471 848.852, 435.073 819.500 C 437.684 809.421, 437.902 792.776, 435.564 782 C 433.538 772.657, 426.569 758.252, 420.568 751 C 411.395 739.915, 399.063 731.676, 384.500 726.903 C 377.959 724.760, 375.515 724.584, 347.250 724.227 L 317 723.846 317 799.923 M 982.030 725.583 C 977.396 727.593, 975.190 729.711, 972.751 734.490 C 968.318 743.177, 971.160 754.067, 979.341 759.736 C 982.721 762.079, 984.344 762.500, 989.988 762.500 C 995.619 762.500, 997.304 762.065, 1000.912 759.677 C 1006.737 755.822, 1010.512 747.787, 1009.618 741.145 C 1007.906 728.418, 993.817 720.471, 982.030 725.583 M 350 799.869 L 350 845 357.790 845 C 380.558 845, 396.969 832.423, 401.992 811.125 C 403.782 803.534, 402.826 788.958, 400.090 782.136 C 393.160 764.854, 380.374 756.221, 360.250 755.238 L 350 754.738 350 799.869 M 636.500 776.392 C 630.665 778.228, 628.186 779.746, 622.812 784.773 L 618 789.274 618 783.137 L 618 777 601.500 777 L 585 777 585 826.500 L 585 876 601.429 876 L 617.859 876 618.179 848.250 C 618.486 821.751, 618.604 820.275, 620.804 815.500 C 624.584 807.295, 630.963 802, 637.067 802 C 641.201 802, 646.056 805.193, 648.300 809.388 C 650.410 813.331, 650.513 814.780, 650.814 844.750 L 651.129 876 667.473 876 L 683.818 876 684.159 847.250 L 684.500 818.500 687.298 812.802 C 693.500 800.173, 708.365 798.294, 714.300 809.388 C 716.410 813.331, 716.513 814.780, 716.814 844.750 L 717.129 876 733.564 876 L 750 876 750 844.049 C 750 824.587, 749.568 810.027, 748.895 806.799 C 745.854 792.216, 736.395 780.747, 724.339 777.023 C 709.056 772.302, 692.349 775.981, 681.044 786.555 L 676.354 790.942 670.291 785.047 C 665.311 780.203, 663.030 778.781, 657.509 777.076 C 649.991 774.754, 642.485 774.509, 636.500 776.392 M 806.500 776.447 C 799.122 778.332, 796.384 779.603, 789.900 784.151 C 768.682 799.035, 762.145 830.621, 775.549 853.493 C 781.926 864.375, 792.224 872.492, 804.312 876.163 C 809.985 877.886, 812.915 878.168, 820.853 877.753 C 832.562 877.141, 839.915 874.588, 846.397 868.882 L 851 864.830 851 870.415 L 851 876 868.009 876 L 885.019 876 884.759 826.750 L 884.500 777.500 868 777.500 L 851.500 777.500 851 783.500 C 850.719 786.867, 850.208 788.793, 849.835 787.889 C 849.469 787.004, 846.436 784.453, 843.094 782.222 C 833.298 775.680, 818.590 773.359, 806.500 776.447 M 1067.348 776.420 C 1042.828 782.367, 1026.369 807.715, 1029.992 833.952 C 1031.943 848.083, 1040.646 862.259, 1052.041 869.868 C 1061.380 876.105, 1069.963 878.375, 1081.853 877.753 C 1093.562 877.141, 1100.915 874.588, 1107.397 868.882 L 1112 864.830 1112 874.300 C 1112 887.202, 1110.048 893.021, 1103.534 899.534 C 1096.639 906.428, 1089.007 908.519, 1079.935 905.998 C 1074.836 904.582, 1068.516 898.773, 1066.353 893.514 L 1064.500 889.007 1047.750 889.004 C 1028.676 888.999, 1029.749 888.358, 1032.588 898.068 C 1036.964 913.033, 1050.153 924.433, 1069.085 929.616 C 1078.932 932.311, 1097.443 932.147, 1106.542 929.285 C 1120.377 924.932, 1133.099 914.213, 1139.501 901.516 C 1145.719 889.184, 1145.963 886.443, 1145.983 828.750 L 1146 777 1129 777 L 1112 777 1112 783.167 L 1112 789.333 1108.318 785.651 C 1099.295 776.628, 1082.288 772.796, 1067.348 776.420 M 1315.500 776.447 C 1308.122 778.332, 1305.384 779.603, 1298.900 784.151 C 1277.682 799.035, 1271.145 830.621, 1284.549 853.493 C 1290.926 864.375, 1301.224 872.492, 1313.312 876.163 C 1318.985 877.886, 1321.915 878.168, 1329.853 877.753 C 1341.562 877.141, 1348.915 874.588, 1355.397 868.882 L 1360 864.830 1360 870.415 L 1360 876 1377.009 876 L 1394.019 876 1393.759 826.750 L 1393.500 777.500 1377 777.500 L 1360.500 777.500 1360 783.500 C 1359.719 786.867, 1359.208 788.793, 1358.835 787.889 C 1358.469 787.004, 1355.436 784.453, 1352.094 782.222 C 1342.298 775.680, 1327.590 773.359, 1315.500 776.447 M 457 809.864 C 457 827.938, 457.448 845.091, 457.996 847.980 C 459.577 856.314, 463.767 864.509, 468.908 869.317 C 475.628 875.603, 481.330 877.500, 493.500 877.500 C 505.476 877.500, 510.706 875.805, 518.618 869.361 L 524 864.977 524 870.488 L 524 876 541 876 L 558 876 558 826.500 L 558 777 541 777 L 524 777 524 803.818 C 524 825.178, 523.683 831.704, 522.444 835.878 C 520.697 841.759, 515.534 848.122, 510.978 850.009 C 506.927 851.687, 498.531 850.791, 495.887 848.398 C 490.655 843.663, 490.522 842.737, 490.187 808.750 L 489.873 777 473.437 777 L 457 777 457 809.864 M 973 826.500 L 973 876 990 876 L 1007 876 1007 826.500 L 1007 777 990 777 L 973 777 973 826.500 M 1157.167 777.860 C 1157.350 778.333, 1165.825 800.602, 1176 827.346 C 1194.440 875.815, 1194.509 875.971, 1197.357 875.986 C 1199.236 875.995, 1200.045 876.428, 1199.719 877.250 C 1199.447 877.938, 1194.623 889.975, 1189 904 C 1183.377 918.025, 1178.553 930.063, 1178.281 930.750 C 1177.896 931.721, 1181.689 932, 1195.286 932 C 1208.358 932, 1212.910 931.684, 1213.276 930.750 C 1218.077 918.489, 1255.815 819.692, 1269.625 783.226 L 1272.001 776.953 1254.833 777.226 L 1237.665 777.500 1225.999 812.500 L 1214.333 847.500 1202.583 812.250 L 1190.833 777 1173.833 777 C 1164.483 777, 1156.983 777.387, 1157.167 777.860 M 820.558 803.492 C 815.333 805.353, 812.082 807.860, 808.754 812.594 C 797.831 828.132, 808.965 850.923, 827.500 850.968 C 849.564 851.022, 859.252 822.499, 842.144 807.855 C 835.555 802.215, 828.273 800.744, 820.558 803.492 M 1081.032 803.309 C 1075.385 805.109, 1068.459 812.605, 1066.598 818.932 C 1064.614 825.675, 1064.609 827.322, 1066.556 833.878 C 1070.747 847.990, 1085.437 854.735, 1098.617 848.598 C 1116.817 840.124, 1116.173 812.341, 1097.581 803.897 C 1093.073 801.850, 1086.360 801.612, 1081.032 803.309 M 1329.558 803.492 C 1324.333 805.353, 1321.082 807.860, 1317.754 812.594 C 1306.831 828.132, 1317.965 850.923, 1336.500 850.968 C 1358.564 851.022, 1368.252 822.499, 1351.144 807.855 C 1344.555 802.215, 1337.273 800.744, 1329.558 803.492 M 607.403 957.079 C 603.648 958.169, 595.475 965.180, 593.494 969.012 C 590.546 974.712, 589.821 980.871, 591.441 986.443 C 595.763 1001.313, 610.982 1009.108, 624.758 1003.508 C 630.027 1001.365, 637.219 993.550, 638.811 988.236 C 644.592 968.941, 626.923 951.414, 607.403 957.079 M 683.667 956.667 C 683.300 957.033, 683 968.058, 683 981.167 L 683 1005 688.474 1005 L 693.948 1005 694.224 990.053 L 694.500 975.106 702.591 989.803 L 710.682 1004.500 715.841 1004.802 L 721 1005.105 721 980.552 L 721 956 716.026 956 L 711.052 956 710.776 971.250 L 710.500 986.500 702.174 971.250 L 693.848 956 689.091 956 C 686.474 956, 684.033 956.300, 683.667 956.667 M 766 980.500 L 766 1005 780 1005 L 794 1005 794 1000 L 794 995 785 995 L 776 995 776 975.500 L 776 956 771 956 L 766 956 766 980.500 M 837 980.500 L 837 1005 842 1005 L 847 1005 847 980.500 L 847 956 842 956 L 837 956 837 980.500 M 892 980.500 L 892 1005 897.473 1005 L 902.947 1005 903.223 990.250 L 903.500 975.500 911.500 990.235 L 919.500 1004.971 924.750 1004.985 L 930 1005 930 980.500 L 930 956 925 956 L 920 956 919.968 971.250 C 919.943 983.458, 919.693 986.179, 918.718 984.889 C 918.048 984.003, 914.138 977.140, 910.029 969.639 L 902.559 956 897.279 956 L 892 956 892 980.500 M 975 980.472 L 975 1005 989.055 1005 L 1003.110 1005 1002.805 1000.250 L 1002.500 995.500 993.750 995.211 L 985 994.922 985 989.961 L 985 985 993.500 985 L 1002 985 1002 980.500 L 1002 976 993.500 976 L 985 976 985 971 L 985 966 994.055 966 L 1003.110 966 1002.805 961.250 L 1002.500 956.500 988.750 956.222 L 975 955.944 975 980.472 M 1109.500 957.818 C 1103.627 960.607, 1101.727 963.238, 1101.233 969.265 C 1100.539 977.722, 1104.170 981.100, 1118.098 984.960 C 1126.408 987.263, 1129.561 989.656, 1128.537 992.884 C 1127.649 995.680, 1124.784 997.115, 1119.952 997.181 C 1115.216 997.247, 1111.261 994.887, 1110.407 991.487 C 1109.839 989.222, 1109.301 989, 1104.392 989 C 1098.389 989, 1097.985 989.635, 1100.364 995.329 C 1103.372 1002.527, 1111.944 1006.631, 1122.072 1005.722 C 1131.996 1004.831, 1138.404 1000.017, 1139.007 993 C 1139.860 983.068, 1136.505 979.370, 1123.544 975.951 C 1113.433 973.283, 1110.330 971.120, 1112.038 967.929 C 1114.691 962.972, 1123.985 963.051, 1126.831 968.054 C 1128.317 970.665, 1129.034 970.988, 1133.358 970.994 C 1138.151 971, 1138.208 970.963, 1137.563 968.250 C 1136.752 964.838, 1134.190 961.231, 1130.754 958.666 C 1126.855 955.755, 1114.852 955.276, 1109.500 957.818 M 1182 980.448 L 1182 1005 1187.500 1005 L 1193 1005 1193 995 L 1193 985 1201 985 L 1209 985 1209 995 L 1209 1005 1214.500 1005 L 1220 1005 1220 980.500 L 1220 956 1214.500 956 L 1209 956 1209 966 L 1209 976 1201.036 976 L 1193.072 976 1192.786 966.250 L 1192.500 956.500 1187.250 956.198 L 1182 955.895 1182 980.448 M 1278.399 957.906 C 1266.828 963.161, 1260.637 976.369, 1264.414 987.741 C 1267.871 998.148, 1277.275 1005.181, 1287.821 1005.245 C 1308.847 1005.374, 1320.381 981.049, 1306.994 964.809 C 1300.417 956.829, 1287.589 953.733, 1278.399 957.906 M 1356 980.389 L 1356 1005 1360.961 1005 L 1365.922 1005 1366.211 996.250 L 1366.500 987.500 1373.050 987 C 1383.888 986.173, 1388.467 981.679, 1388.467 971.870 C 1388.467 965.287, 1386.482 961.785, 1380.895 958.509 C 1378.223 956.942, 1375.211 956.440, 1366.750 956.149 L 1356 955.779 1356 980.389 M 1366 972 L 1366 979 1370.250 978.985 C 1375.115 978.967, 1376.216 978.419, 1377.935 975.157 C 1380.679 969.950, 1377.021 965, 1370.429 965 L 1366 965 1366 972 M 608.604 968.266 C 601.677 972.238, 599.233 980.030, 602.752 986.929 C 608.238 997.689, 622.763 997.319, 628.105 986.283 C 631.630 979.001, 628.198 970.652, 620.329 967.364 C 615.794 965.469, 613.125 965.675, 608.604 968.266 M 1282 967.793 C 1271.757 973.383, 1271.348 986.974, 1281.241 993.005 C 1289.866 998.264, 1302.037 991.415, 1302.177 981.224 C 1302.326 970.446, 1290.979 962.893, 1282 967.793" stroke="none" fill="#862f25" fill-rule="evenodd"/><path d="M -0 800.001 L -0 1600.001 900.250 1599.751 L 1800.500 1599.500 1800.751 799.750 L 1801.001 0 900.501 0 L 0 0 -0 800.001 M 0.498 800.500 C 0.498 1240.500, 0.611 1420.650, 0.750 1200.832 C 0.889 981.015, 0.889 621.015, 0.750 400.832 C 0.611 180.650, 0.498 360.500, 0.498 800.500 M 1215.635 459.135 C 1183.411 463.273, 1159.065 479.709, 1145.774 506.297 C 1143.794 510.259, 1141.191 516.425, 1139.991 520 C 1135.253 534.113, 1135 537.899, 1135 594.630 C 1135 646.701, 1134.948 648.139, 1133 650.230 C 1130.433 652.986, 1130.296 659.923, 1132.750 662.903 C 1137.154 668.249, 1146.243 667.072, 1149.330 660.756 C 1150.879 657.586, 1150.979 656.467, 1149.985 653.456 C 1149.340 651.500, 1147.954 649.364, 1146.906 648.709 C 1145.069 647.562, 1145 645.524, 1145 592.176 C 1145 539.431, 1145.098 536.450, 1147.078 528.667 C 1154.590 499.136, 1174.628 478.767, 1204 470.804 C 1211.551 468.757, 1214.676 468.505, 1232 468.547 C 1248.952 468.588, 1252.584 468.886, 1259.796 470.830 C 1286.636 478.064, 1304.686 493.981, 1314.163 518.770 L 1317.500 527.500 1317.787 587.167 L 1318.074 646.835 1315.578 649.331 C 1312.096 652.813, 1311.382 656.482, 1313.375 660.661 C 1316.402 667.007, 1324.428 668.299, 1329.476 663.252 C 1333.134 659.593, 1332.639 651.415, 1328.600 648.783 C 1327.820 648.275, 1327.499 630.803, 1327.497 588.783 C 1327.493 521.834, 1327.759 524.542, 1319.485 507.388 C 1311.113 490.031, 1298.263 477.154, 1280.678 468.498 C 1262.831 459.713, 1238.455 456.204, 1215.635 459.135 M 1391.500 591.525 C 1361.250 594.435, 1336.388 596.858, 1336.250 596.908 C 1336.112 596.959, 1336 601.797, 1336 607.661 L 1336 618.322 1374.522 617.699 L 1413.044 617.076 1416.002 621.788 C 1417.629 624.380, 1422.322 633.250, 1426.430 641.500 C 1467.260 723.483, 1478.934 822.087, 1460.938 932.968 C 1453.154 980.926, 1439.521 1032.030, 1421.981 1079 C 1415.851 1095.415, 1403.397 1125.295, 1399.371 1133.250 C 1398.048 1135.862, 1397.152 1138, 1397.379 1138 C 1397.606 1138, 1401.826 1131.813, 1406.757 1124.250 C 1461.273 1040.648, 1492.218 952.226, 1502.210 851.500 C 1504.207 831.375, 1503.870 764.732, 1501.670 744.500 C 1496.997 701.527, 1488.720 663.765, 1477.376 633.666 C 1474.855 626.975, 1468.676 613.515, 1463.646 603.756 L 1454.500 586.012 1450.500 586.122 C 1448.300 586.183, 1421.750 588.614, 1391.500 591.525 M 1230 606.071 C 1189.575 609.832, 1155.713 612.929, 1154.750 612.954 C 1153.482 612.987, 1153 613.827, 1153 616 L 1153 619 1183.336 619 C 1200.020 619, 1235.345 618.702, 1261.836 618.337 L 1310 617.673 1309.989 612.087 C 1309.983 609.014, 1309.699 604.813, 1309.358 602.750 C 1308.819 599.487, 1308.398 599.015, 1306.119 599.116 C 1304.679 599.180, 1270.425 602.310, 1230 606.071 M 1108 617 L 1091.500 618.735 1109.750 618.868 C 1127.377 618.995, 1128 618.932, 1128 617 C 1128 615.712, 1127.377 615.047, 1126.250 615.132 C 1125.287 615.205, 1117.075 616.046, 1108 617 M 912 792 L 912 876 928.500 876 L 945 876 945 792 L 945 708 928.500 708 L 912 708 912 792 M 317 799.923 L 317 876 342.750 875.992 C 356.913 875.988, 371.338 875.524, 374.806 874.962 C 404.301 870.175, 427.471 848.852, 435.073 819.500 C 437.684 809.421, 437.902 792.776, 435.564 782 C 433.538 772.657, 426.569 758.252, 420.568 751 C 411.395 739.915, 399.063 731.676, 384.500 726.903 C 377.959 724.760, 375.515 724.584, 347.250 724.227 L 317 723.846 317 799.923 M 982.030 725.583 C 977.396 727.593, 975.190 729.711, 972.751 734.490 C 968.318 743.177, 971.160 754.067, 979.341 759.736 C 982.721 762.079, 984.344 762.500, 989.988 762.500 C 995.619 762.500, 997.304 762.065, 1000.912 759.677 C 1006.737 755.822, 1010.512 747.787, 1009.618 741.145 C 1007.906 728.418, 993.817 720.471, 982.030 725.583 M 350 799.869 L 350 845 357.790 845 C 380.558 845, 396.969 832.423, 401.992 811.125 C 403.782 803.534, 402.826 788.958, 400.090 782.136 C 393.160 764.854, 380.374 756.221, 360.250 755.238 L 350 754.738 350 799.869 M 636.500 776.392 C 630.665 778.228, 628.186 779.746, 622.812 784.773 L 618 789.274 618 783.137 L 618 777 601.500 777 L 585 777 585 826.500 L 585 876 601.429 876 L 617.859 876 618.179 848.250 C 618.486 821.751, 618.604 820.275, 620.804 815.500 C 624.584 807.295, 630.963 802, 637.067 802 C 641.201 802, 646.056 805.193, 648.300 809.388 C 650.410 813.331, 650.513 814.780, 650.814 844.750 L 651.129 876 667.473 876 L 683.818 876 684.159 847.250 L 684.500 818.500 687.298 812.802 C 693.500 800.173, 708.365 798.294, 714.300 809.388 C 716.410 813.331, 716.513 814.780, 716.814 844.750 L 717.129 876 733.564 876 L 750 876 750 844.049 C 750 824.587, 749.568 810.027, 748.895 806.799 C 745.854 792.216, 736.395 780.747, 724.339 777.023 C 709.056 772.302, 692.349 775.981, 681.044 786.555 L 676.354 790.942 670.291 785.047 C 665.311 780.203, 663.030 778.781, 657.509 777.076 C 649.991 774.754, 642.485 774.509, 636.500 776.392 M 806.500 776.447 C 799.122 778.332, 796.384 779.603, 789.900 784.151 C 768.682 799.035, 762.145 830.621, 775.549 853.493 C 781.926 864.375, 792.224 872.492, 804.312 876.163 C 809.985 877.886, 812.915 878.168, 820.853 877.753 C 832.562 877.141, 839.915 874.588, 846.397 868.882 L 851 864.830 851 870.415 L 851 876 868.009 876 L 885.019 876 884.759 826.750 L 884.500 777.500 868 777.500 L 851.500 777.500 851 783.500 C 850.719 786.867, 850.208 788.793, 849.835 787.889 C 849.469 787.004, 846.436 784.453, 843.094 782.222 C 833.298 775.680, 818.590 773.359, 806.500 776.447 M 1067.348 776.420 C 1042.828 782.367, 1026.369 807.715, 1029.992 833.952 C 1031.943 848.083, 1040.646 862.259, 1052.041 869.868 C 1061.380 876.105, 1069.963 878.375, 1081.853 877.753 C 1093.562 877.141, 1100.915 874.588, 1107.397 868.882 L 1112 864.830 1112 874.300 C 1112 887.202, 1110.048 893.021, 1103.534 899.534 C 1096.639 906.428, 1089.007 908.519, 1079.935 905.998 C 1074.836 904.582, 1068.516 898.773, 1066.353 893.514 L 1064.500 889.007 1047.750 889.004 C 1028.676 888.999, 1029.749 888.358, 1032.588 898.068 C 1036.964 913.033, 1050.153 924.433, 1069.085 929.616 C 1078.932 932.311, 1097.443 932.147, 1106.542 929.285 C 1120.377 924.932, 1133.099 914.213, 1139.501 901.516 C 1145.719 889.184, 1145.963 886.443, 1145.983 828.750 L 1146 777 1129 777 L 1112 777 1112 783.167 L 1112 789.333 1108.318 785.651 C 1099.295 776.628, 1082.288 772.796, 1067.348 776.420 M 1315.500 776.447 C 1308.122 778.332, 1305.384 779.603, 1298.900 784.151 C 1277.682 799.035, 1271.145 830.621, 1284.549 853.493 C 1290.926 864.375, 1301.224 872.492, 1313.312 876.163 C 1318.985 877.886, 1321.915 878.168, 1329.853 877.753 C 1341.562 877.141, 1348.915 874.588, 1355.397 868.882 L 1360 864.830 1360 870.415 L 1360 876 1377.009 876 L 1394.019 876 1393.759 826.750 L 1393.500 777.500 1377 777.500 L 1360.500 777.500 1360 783.500 C 1359.719 786.867, 1359.208 788.793, 1358.835 787.889 C 1358.469 787.004, 1355.436 784.453, 1352.094 782.222 C 1342.298 775.680, 1327.590 773.359, 1315.500 776.447 M 457 809.864 C 457 827.938, 457.448 845.091, 457.996 847.980 C 459.577 856.314, 463.767 864.509, 468.908 869.317 C 475.628 875.603, 481.330 877.500, 493.500 877.500 C 505.476 877.500, 510.706 875.805, 518.618 869.361 L 524 864.977 524 870.488 L 524 876 541 876 L 558 876 558 826.500 L 558 777 541 777 L 524 777 524 803.818 C 524 825.178, 523.683 831.704, 522.444 835.878 C 520.697 841.759, 515.534 848.122, 510.978 850.009 C 506.927 851.687, 498.531 850.791, 495.887 848.398 C 490.655 843.663, 490.522 842.737, 490.187 808.750 L 489.873 777 473.437 777 L 457 777 457 809.864 M 973 826.500 L 973 876 990 876 L 1007 876 1007 826.500 L 1007 777 990 777 L 973 777 973 826.500 M 1157.167 777.860 C 1157.350 778.333, 1165.825 800.602, 1176 827.346 C 1194.440 875.815, 1194.509 875.971, 1197.357 875.986 C 1199.236 875.995, 1200.045 876.428, 1199.719 877.250 C 1199.447 877.938, 1194.623 889.975, 1189 904 C 1183.377 918.025, 1178.553 930.063, 1178.281 930.750 C 1177.896 931.721, 1181.689 932, 1195.286 932 C 1208.358 932, 1212.910 931.684, 1213.276 930.750 C 1218.077 918.489, 1255.815 819.692, 1269.625 783.226 L 1272.001 776.953 1254.833 777.226 L 1237.665 777.500 1225.999 812.500 L 1214.333 847.500 1202.583 812.250 L 1190.833 777 1173.833 777 C 1164.483 777, 1156.983 777.387, 1157.167 777.860 M 820.558 803.492 C 815.333 805.353, 812.082 807.860, 808.754 812.594 C 797.831 828.132, 808.965 850.923, 827.500 850.968 C 849.564 851.022, 859.252 822.499, 842.144 807.855 C 835.555 802.215, 828.273 800.744, 820.558 803.492 M 1081.032 803.309 C 1075.385 805.109, 1068.459 812.605, 1066.598 818.932 C 1064.614 825.675, 1064.609 827.322, 1066.556 833.878 C 1070.747 847.990, 1085.437 854.735, 1098.617 848.598 C 1116.817 840.124, 1116.173 812.341, 1097.581 803.897 C 1093.073 801.850, 1086.360 801.612, 1081.032 803.309 M 1329.558 803.492 C 1324.333 805.353, 1321.082 807.860, 1317.754 812.594 C 1306.831 828.132, 1317.965 850.923, 1336.500 850.968 C 1358.564 851.022, 1368.252 822.499, 1351.144 807.855 C 1344.555 802.215, 1337.273 800.744, 1329.558 803.492 M 607.403 957.079 C 603.648 958.169, 595.475 965.180, 593.494 969.012 C 590.546 974.712, 589.821 980.871, 591.441 986.443 C 595.763 1001.313, 610.982 1009.108, 624.758 1003.508 C 630.027 1001.365, 637.219 993.550, 638.811 988.236 C 644.592 968.941, 626.923 951.414, 607.403 957.079 M 683.667 956.667 C 683.300 957.033, 683 968.058, 683 981.167 L 683 1005 688.474 1005 L 693.948 1005 694.224 990.053 L 694.500 975.106 702.591 989.803 L 710.682 1004.500 715.841 1004.802 L 721 1005.105 721 980.552 L 721 956 716.026 956 L 711.052 956 710.776 971.250 L 710.500 986.500 702.174 971.250 L 693.848 956 689.091 956 C 686.474 956, 684.033 956.300, 683.667 956.667 M 766 980.500 L 766 1005 780 1005 L 794 1005 794 1000 L 794 995 785 995 L 776 995 776 975.500 L 776 956 771 956 L 766 956 766 980.500 M 837 980.500 L 837 1005 842 1005 L 847 1005 847 980.500 L 847 956 842 956 L 837 956 837 980.500 M 892 980.500 L 892 1005 897.473 1005 L 902.947 1005 903.223 990.250 L 903.500 975.500 911.500 990.235 L 919.500 1004.971 924.750 1004.985 L 930 1005 930 980.500 L 930 956 925 956 L 920 956 919.968 971.250 C 919.943 983.458, 919.693 986.179, 918.718 984.889 C 918.048 984.003, 914.138 977.140, 910.029 969.639 L 902.559 956 897.279 956 L 892 956 892 980.500 M 975 980.472 L 975 1005 989.055 1005 L 1003.110 1005 1002.805 1000.250 L 1002.500 995.500 993.750 995.211 L 985 994.922 985 989.961 L 985 985 993.500 985 L 1002 985 1002 980.500 L 1002 976 993.500 976 L 985 976 985 971 L 985 966 994.055 966 L 1003.110 966 1002.805 961.250 L 1002.500 956.500 988.750 956.222 L 975 955.944 975 980.472 M 1109.500 957.818 C 1103.627 960.607, 1101.727 963.238, 1101.233 969.265 C 1100.539 977.722, 1104.170 981.100, 1118.098 984.960 C 1126.408 987.263, 1129.561 989.656, 1128.537 992.884 C 1127.649 995.680, 1124.784 997.115, 1119.952 997.181 C 1115.216 997.247, 1111.261 994.887, 1110.407 991.487 C 1109.839 989.222, 1109.301 989, 1104.392 989 C 1098.389 989, 1097.985 989.635, 1100.364 995.329 C 1103.372 1002.527, 1111.944 1006.631, 1122.072 1005.722 C 1131.996 1004.831, 1138.404 1000.017, 1139.007 993 C 1139.860 983.068, 1136.505 979.370, 1123.544 975.951 C 1113.433 973.283, 1110.330 971.120, 1112.038 967.929 C 1114.691 962.972, 1123.985 963.051, 1126.831 968.054 C 1128.317 970.665, 1129.034 970.988, 1133.358 970.994 C 1138.151 971, 1138.208 970.963, 1137.563 968.250 C 1136.752 964.838, 1134.190 961.231, 1130.754 958.666 C 1126.855 955.755, 1114.852 955.276, 1109.500 957.818 M 1182 980.448 L 1182 1005 1187.500 1005 L 1193 1005 1193 995 L 1193 985 1201 985 L 1209 985 1209 995 L 1209 1005 1214.500 1005 L 1220 1005 1220 980.500 L 1220 956 1214.500 956 L 1209 956 1209 966 L 1209 976 1201.036 976 L 1193.072 976 1192.786 966.250 L 1192.500 956.500 1187.250 956.198 L 1182 955.895 1182 980.448 M 1278.399 957.906 C 1266.828 963.161, 1260.637 976.369, 1264.414 987.741 C 1267.871 998.148, 1277.275 1005.181, 1287.821 1005.245 C 1308.847 1005.374, 1320.381 981.049, 1306.994 964.809 C 1300.417 956.829, 1287.589 953.733, 1278.399 957.906 M 1356 980.389 L 1356 1005 1360.961 1005 L 1365.922 1005 1366.211 996.250 L 1366.500 987.500 1373.050 987 C 1383.888 986.173, 1388.467 981.679, 1388.467 971.870 C 1388.467 965.287, 1386.482 961.785, 1380.895 958.509 C 1378.223 956.942, 1375.211 956.440, 1366.750 956.149 L 1356 955.779 1356 980.389 M 1366 972 L 1366 979 1370.250 978.985 C 1375.115 978.967, 1376.216 978.419, 1377.935 975.157 C 1380.679 969.950, 1377.021 965, 1370.429 965 L 1366 965 1366 972 M 608.604 968.266 C 601.677 972.238, 599.233 980.030, 602.752 986.929 C 608.238 997.689, 622.763 997.319, 628.105 986.283 C 631.630 979.001, 628.198 970.652, 620.329 967.364 C 615.794 965.469, 613.125 965.675, 608.604 968.266 M 1282 967.793 C 1271.757 973.383, 1271.348 986.974, 1281.241 993.005 C 1289.866 998.264, 1302.037 991.415, 1302.177 981.224 C 1302.326 970.446, 1290.979 962.893, 1282 967.793" stroke="none" fill="#fbfbfb" fill-rule="evenodd"/></svg>